<svg width="24" height="24" viewBox="0 0 24 24" fill="none" xmlns="http://www.w3.org/2000/svg">
<mask id="mask0_911_523" style="mask-type:alpha" maskUnits="userSpaceOnUse" x="0" y="0" width="24" height="24">
<rect width="24" height="24" fill="#D9D9D9"/>
</mask>
<g mask="url(#mask0_911_523)">
<path d="M13.193 20.75C12.9802 20.75 12.802 20.6782 12.6585 20.5345C12.5148 20.391 12.443 20.2128 12.443 20V18.6578C11.6738 18.5231 11.0043 18.2506 10.4345 17.8403C9.86451 17.4301 9.40776 16.8596 9.06426 16.1288C8.97959 15.9533 8.97859 15.7668 9.06126 15.5693C9.14393 15.3717 9.28851 15.2308 9.49501 15.1463C9.67068 15.0719 9.85459 15.0744 10.0468 15.1538C10.2391 15.2333 10.3827 15.366 10.4775 15.552C10.7673 16.1032 11.1402 16.524 11.596 16.8145C12.0517 17.1048 12.6314 17.25 13.3353 17.25C14.0571 17.25 14.694 17.0783 15.246 16.7348C15.7978 16.3911 16.0738 15.8462 16.0738 15.1C16.0738 14.4525 15.8664 13.9355 15.4518 13.549C15.0369 13.1625 14.1789 12.759 12.8778 12.3385C11.5149 11.9077 10.5684 11.4038 10.0383 10.827C9.50809 10.25 9.24301 9.52433 9.24301 8.65C9.24301 7.64367 9.59626 6.85167 10.3028 6.274C11.0091 5.6965 11.7225 5.37567 12.443 5.3115V4C12.443 3.78717 12.5148 3.609 12.6585 3.4655C12.802 3.32183 12.9802 3.25 13.193 3.25C13.4058 3.25 13.584 3.32183 13.7275 3.4655C13.8712 3.609 13.943 3.78717 13.943 4V5.3115C14.5572 5.39233 15.0959 5.57092 15.5593 5.84725C16.0228 6.12342 16.4109 6.4865 16.7238 6.9365C16.8353 7.10183 16.8596 7.28258 16.7968 7.47875C16.7339 7.67492 16.5993 7.8185 16.393 7.9095C16.2173 7.99033 16.035 7.99933 15.846 7.9365C15.6568 7.87367 15.4828 7.75442 15.3238 7.57875C15.0879 7.30708 14.8049 7.09267 14.4748 6.9355C14.1446 6.7785 13.734 6.7 13.243 6.7C12.4905 6.7 11.8857 6.88333 11.4285 7.25C10.9715 7.61667 10.743 8.08333 10.743 8.65C10.743 9.232 10.977 9.69742 11.445 10.0462C11.9128 10.3949 12.7827 10.7603 14.0545 11.1423C15.2365 11.5013 16.1186 12.0128 16.7008 12.677C17.2828 13.341 17.5738 14.1384 17.5738 15.0693C17.5738 16.1628 17.2222 17.0114 16.519 17.6152C15.8158 18.2192 14.9572 18.577 13.943 18.6885V20C13.943 20.2128 13.8712 20.391 13.7275 20.5345C13.584 20.6782 13.4058 20.75 13.193 20.75Z" fill="#535460"/>
<path d="M5.49225 13.0953H2.74975C2.53725 13.0953 2.35917 13.0234 2.2155 12.8796C2.07183 12.7358 2 12.5576 2 12.3451C2 12.1324 2.07183 11.9543 2.2155 11.8108C2.35917 11.6672 2.53725 11.5953 2.74975 11.5953H5.49225L4.194 10.2876C4.05567 10.1389 3.98233 9.96143 3.974 9.7551C3.96567 9.54877 4.0385 9.37051 4.1925 9.22035C4.34233 9.07035 4.51692 8.99693 4.71625 9.0001C4.91558 9.00326 5.08958 9.07926 5.23825 9.2281L7.7325 11.7126C7.91333 11.8934 8.00375 12.1043 8.00375 12.3453C8.00375 12.5863 7.91333 12.7973 7.7325 12.9781L5.23825 15.4723C5.09075 15.621 4.91867 15.6953 4.722 15.6953C4.52517 15.6953 4.35017 15.6203 4.197 15.4701C4.04 15.3201 3.96567 15.1419 3.974 14.9356C3.98233 14.7293 4.05567 14.5518 4.194 14.4031L5.49225 13.0953Z" fill="#535460"/>
</g>
</svg>
